<svg xmlns="http://www.w3.org/2000/svg" width="51" height="52" viewBox="0 0 51 52">
  <g id="https:_material.io_resources_icons_icon_eco_style_outline" data-name="https://material.io/resources/icons/?icon=eco&amp;style=outline" transform="translate(0.083 -0.414)">
    <g id="Bounding_Box" transform="translate(0 0)">
      <rect id="Rectangle_12" data-name="Rectangle 12" width="51" height="52" transform="translate(-0.083 0.414)" fill="none"/>
    </g>
    <g id="Master" transform="translate(7.821 8.989)">
      <path id="Path_49" data-name="Path 49" d="M8.46,12.817A15.24,15.24,0,0,0,30.013,34.371C37.59,26.794,38.831,4,38.831,4S16.036,5.241,8.46,12.817ZM26.944,31.3A10.794,10.794,0,0,1,13.838,33,34.652,34.652,0,0,1,24.462,17.063,35.107,35.107,0,0,0,10.594,30.125a10.86,10.86,0,0,1,.958-14.238c3.788-3.788,14.3-6.118,22.489-7.1C33.061,16.976,30.732,27.491,26.944,31.3Z" transform="translate(-4.003 -4)" fill="#fff"/>
    </g>
  </g>
</svg>
