<svg xmlns="http://www.w3.org/2000/svg" width="16.075" height="16.075" viewBox="0 0 16.075 16.075">
  <g id="https:_www.flaticon.com_free-icon_verified_907830_term_check_page_1_position_15" data-name="https://www.flaticon.com/free-icon/verified_907830#term=check&amp;page=1&amp;position=15" transform="translate(0 0)">
    <g id="Group_22" data-name="Group 22" transform="translate(0 0)">
      <g id="Group_21" data-name="Group 21">
        <path id="Path_42" data-name="Path 42" d="M13.721,2.354A8.037,8.037,0,0,0,2.354,13.721,8.037,8.037,0,1,0,13.721,2.354ZM8.037,15.133a7.1,7.1,0,1,1,7.1-7.1A7.1,7.1,0,0,1,8.037,15.133Z" transform="translate(0 0)" fill="#5db2ff"/>
      </g>
    </g>
    <g id="Group_24" data-name="Group 24" transform="translate(4.06 5.321)">
      <g id="Group_23" data-name="Group 23">
        <path id="Path_43" data-name="Path 43" d="M137.118,169.605a.471.471,0,0,0-.666,0l-4.159,4.159-2.189-2.189a.471.471,0,1,0-.666.666l2.522,2.522a.471.471,0,0,0,.666,0l4.492-4.492A.471.471,0,0,0,137.118,169.605Z" transform="translate(-129.301 -169.467)" fill="#5db2ff"/>
      </g>
    </g>
  </g>
</svg>
